<?xml version="1.0" encoding="UTF-8"?>
<svg id="Calque_1" data-name="Calque 1" xmlns="http://www.w3.org/2000/svg" viewBox="0 0 797.03 269.55">
  <defs>
    <style>
      .cls-1 {
        fill: #1d1d1b;
      }
    </style>
  </defs>
  <path class="cls-1" d="M37.57,209.45v-40.69c0-9.11-6.55-14.8-16.22-14.8H7.12v-31.87h14.23c9.68,0,16.22-5.69,16.22-14.8v-40.69c0-33.01,19.64-49.8,51.51-49.8,2.85,0,9.96.28,13.09.86v31.87h-8.82c-12.52,0-20.77,4.84-20.77,21.63v35.29c0,17.64-7.4,28.46-21.63,31.59,14.23,3.13,21.63,13.94,21.63,31.59v35.29c0,16.79,8.25,21.63,20.77,21.63h8.82v31.87c-3.13.57-10.24.85-13.09.85-31.87,0-51.51-16.79-51.51-49.8Z"/>
  <path class="cls-1" d="M105.59,136.6c0-39.27,27.04-78.26,78.83-78.26,30.17,0,51.22,13.66,66.59,36.71l-29.88,23.62c-7.68-12.23-18.21-22.2-34.15-22.2-23.62,0-37.28,15.94-37.28,40.13s13.66,40.13,37.28,40.13c15.94,0,26.47-9.96,34.15-22.2l29.88,23.62c-15.37,23.05-36.43,36.71-66.59,36.71-51.79,0-78.83-38.99-78.83-78.26Z"/>
  <path class="cls-1" d="M261.26,136.88c0-39.56,25.9-78.54,80.54-78.54s80.54,38.99,80.54,78.54-25.9,78.54-80.54,78.54-80.54-38.99-80.54-78.54ZM378.23,136.88c0-24.47-15.08-40.41-36.43-40.41s-36.43,15.94-36.43,40.41,15.08,40.41,36.43,40.41,36.43-15.93,36.43-40.41Z"/>
  <path class="cls-1" d="M552.97,195.8c-10.53,11.1-25.9,19.07-44.39,19.07-41.27,0-71.15-30.45-71.15-78.26s29.88-78.26,71.15-78.26c18.5,0,33.86,7.97,44.39,19.35V9.11h43.54v202.05h-43.54v-15.37ZM552.97,157.66v-41.83c-6.26-12.52-19.92-19.35-33.58-19.35-21.63,0-37.85,14.23-37.85,40.13s16.22,40.13,37.85,40.13c13.66,0,27.32-6.83,33.58-19.07Z"/>
  <path class="cls-1" d="M627.25,0h43.54v42.4h-43.54V0ZM627.25,62.04h43.54v149.12h-43.54V62.04Z"/>
  <path class="cls-1" d="M757.31,66.59v40.69c0,9.11,6.55,14.8,16.22,14.8h14.23v31.87h-14.23c-9.67,0-16.22,5.69-16.22,14.8v40.69c0,33.01-19.64,49.8-51.51,49.8-2.85,0-9.96-.28-13.09-.85v-31.87h8.82c12.52,0,20.78-4.84,20.78-21.63v-35.29c0-17.65,7.4-28.46,21.63-31.59-14.23-3.13-21.63-13.95-21.63-31.59v-35.29c0-16.79-8.25-21.63-20.78-21.63h-8.82v-31.87c3.13-.57,10.24-.86,13.09-.86,31.87,0,51.51,16.79,51.51,49.8Z"/>
</svg>