<?xml version="1.0" encoding="UTF-8"?>
<svg id="Calque_1" data-name="Calque 1" xmlns="http://www.w3.org/2000/svg" viewBox="0 0 1000 759.41">
  <defs>
    <style>
      .cls-1 {
        fill: none;
      }
    </style>
  </defs>
  <path class="cls-1" d="M787.98,200.08c-4.89,1.71-7.91,3.57-43.96,11.25-15.19,3.24-30.56,5.67-46,7.4-76.88,8.6-155.69-1.02-228.42-27.32-.43-.16-.86-.32-1.3-.48-.13,22.22.36,44.17,1.23,66.63l3.92,100.51c.52,13.41,1.14,26.67,1.89,39.88.29,5.05.67,10.08,1,15.12,23.63,10.87,95.29,40.84,161.99,38.14,80.46-3.25,121.36-20.92,138.39-30.95,3.89-32.16,7.44-64.26,9.66-97.07l7.45-109.94c.36-5.35.61-10.38.76-15.35l-6.63,2.17ZM599.43,376.25c-18.09-1.35-18.66-26.88-18.75-40.84-.11-17.36,2.49-33.8,11.6-48.72,1.5-2.46,5.82-4.92,8.55-5.16,2.97-.26,6.97,2.3,9.17,5.19,6.41,8.44,7.16,18.67,8.01,28.92,1.24,14.96-1.98,52.29-18.58,60.61ZM698.2,331.23c-1.2,14.44-3.05,27.67-11.09,39.82-2.51,3.8-8.48,7.3-12.95,4.54-20.82-12.87-15.54-92.32,8.18-92.05,3.46.04,8.02,3.46,9.91,7.07,6.65,12.68,7.1,26.67,5.94,40.62Z"/>
  <path class="cls-1" d="M634.41,484.03c-96.55,0-138.05-19.75-155.09-33.11.28,3.09.5,6.15.8,9.25,1,10.16,5.03,17.94,14.25,23.02,14.53,8,29.84,13.69,46.64,17.78,52.9,12.87,107.85,14.54,161.33,4.18,20.01-3.88,38.13-10.16,55.25-19.99,7.65-4.4,12.44-10.55,13.56-19.57.5-4.02,1-8.01,1.5-12.02-18.84,10.57-64.12,30.47-138.24,30.47Z"/>
  <path d="M610,286.73c-2.2-2.89-6.2-5.46-9.17-5.19-2.73.24-7.04,2.7-8.55,5.16-9.11,14.92-11.71,31.36-11.6,48.72.09,13.96.66,39.49,18.75,40.84,16.6-8.31,19.82-45.65,18.58-60.61-.85-10.25-1.6-20.49-8.01-28.92Z"/>
  <path d="M682.34,283.54c-23.72-.27-29,79.18-8.18,92.05,4.47,2.76,10.44-.74,12.95-4.54,8.03-12.16,9.89-25.39,11.09-39.82,1.16-13.96.71-27.94-5.94-40.62-1.89-3.61-6.45-7.03-9.91-7.07Z"/>
  <path d="M966.25,144.94c-7.33-6.89-16.12-10.79-26.83-11.05-15.07-17.13-39.49-21.41-59.64-10.75-6.99.22-15.19-1.1-21.84-.21-25.36,3.42-34.86,31.77-29.11,54.84.59,2.38.61,6.84-.78,8.75-12.92,17.71-9.89,40.55,6.18,55.16,12.4,11.26-20.87,17.5,9.73,48.84-2.48,18.06-23.49,47.45-42.29,49.76l5.42-67.61,1.78-35.57,1.56-46.91c1.61-1.69,3.17-3.44,4.79-5.17,8.57-9.15,10.6-27.04,9.54-39.05-1.26-14.36-7.42-28.39-17.8-38.49-4.03-3.92-8.77-7.49-10.9-12.69-2.16-5.26-1.26-11.25-2.38-16.83-2.19-10.98-11.74-18.89-21.38-24.6-20.7-12.27-44.34-18.74-68.01-23.06-39.79-7.25-80.55-8.77-120.86-5.51-28.33,2.29-56.74,7.01-83.04,17.77-13.78,5.64-28.32,14.75-31.1,29.37-1.26,6.6.05,13.82-3.01,19.8-3.44,6.72-11.29,9.77-16.64,15.1-9.03,9-9.89,23.1-10.2,35.84-.3,12.32-.22,25.82,7.6,35.35,1.51,1.84,3.25,3.43,5.14,4.84v33.73s2.64,96.85,2.64,96.85c.26,9.52.3,17.54.07,27.95-15.59.01-29.08-.6-44.29-2.32-2.64-.3-5.49-3.77-5.03-6.21,2.66-14.24,4-27.1,5.56-41.2l5.98-54.25c.43-3.09,6.62-6.63,8.87-9.03,4.19-4.48,8.84-12.02,8.54-18.39l-1.53-32.95c-1.02-21.91-15.94-24.62-27.1-35.71-.53-6.19.43-12.97-.53-19.01-4.23-26.47-59.79-43.18-82.93-47.6-58.02-11.08-117.46-10.9-175.45.26-18.86,3.63-36.07,9.53-51.65,19.26-12.42,7.76-18.4,19.86-16.32,34.12.95,6.52-1.97,10.49-7.67,13.45-8.9,4.63-17.93,12.13-18.89,22.73l-2.72,30.01c-3.21,35.51,27.57,30.61,24.27,43.61-7.81,2.61-16.57,4.6-21.64,10.97-16.75,21.03,1.54,44.16-5.75,53.48-15.57,19.9-21.93,44.72-15.82,69.75,3.43,14.06-17.27,16.86-8.97,46.33-4.89,19.39-7.64,40.67-.58,60.31,9.9,27.56,42.64,41.38,69.5,31.68,10.41-3.76,16.46-11.52,23.77-19.58,10.61,5.13,21.01,10.46,31.74,14.93,8.62,3.6,16.98,4.76,26.04,9.45-9.85,5.75-19.31,7.39-29.24,10.43-6.58,2.02-11.19.67-16.74-2.24-11.98-6.28-25.4-.6-37.39.72-21.91,2.41-39.47,13.05-46.54,34.9-10.48,32.41-2.09,97.53,28.49,123.05-9.33,3.6-30.68,10-30.74,20.97-.12,21.52,71.61,29.4,88.39,31.07,55.98,5.54,111.45,6.28,167.48,1.72,27.45-2.24,52.96-6.61,79.44-14.11,6.11-1.73,24.64-9.85,25.13-17.52.65-10.2-11.87-9-4.64-17.3,11.63-13.34,21.03-27.87,28.21-43.9,8.05-17.99,9.94-35.7,7.61-55.41-4.57-38.64-41.91-64.78-80.01-54.95-28.71,7.41-29.75,15.55-52.84,33.92l-17.2-30.86,11.51-9.03c4.94-3.88,9.41-7.19,15.96-8.66,22.84-5.14,44.36-13.18,63.41-26.21,9.9-6.77,15.58-15.02,17.11-26.88l8.77-68.01,29.4,3.29,31.18,1.4c1.22,22.28,2.28,42.51,5.28,63.45,2.17,15.14,10.45,26.56,23.84,33.59,14.5,7.62,29.65,12.39,45.61,17.12,1.08.32,2.63,1.17,3.32,1.7,3.17,2.38-22.07,32.38-25,35.66-8.68,9.7-21.14,13.85-33.19,16.26-35.18,7.02-36.81,48.95-25.13,77.22,4.98,12.04,12.3,22.72,19.67,34.04-10.33,4.85-32.02,8.81-31.26,21.92.27,4.74,3.69,8.86,8.22,11.2,12.89,6.67,26.19,11.23,40.74,13.99,60.9,11.56,122.84,10.73,185.15,9.54,38.42-.73,75.27-5.44,112.43-13.96,9.23-2.12,39.9-11.09,34.06-24.25-2.69-6.07-8.12-8.6-14.62-12.2l9.54-12.29c17.71-22.81,28.67-49.46,28.08-78.65-.49-24.18-12-46.66-33.07-58.71-17.46-9.98-38.3-9.52-56.79-1.95-6.96,2.85-13.06,6.76-20.25,10.22l-14.49-27.84c20.59-7.44,60.03-18.62,64.57-41.34,4.84-24.24,7.3-47.6,9.94-72.23.28-2.65,2.78-5.26,5.73-5.72,25.92-4.03,50.68-15.17,67.65-35.59,13.85-16.65,20.94-36.66,27.15-57.13,1.11-3.68,3.54-7.39,7.45-8.04,18.44-3.09,30.37-18.61,30.33-37.91,30.08-10.33,48.69-37.89,49.9-69.29.69-17.8-4.66-33.6-17.61-45.77ZM324.62,645.73c8.92-27.09,34.77-62.07,63.82-68.07,12.5-2.58,23.52,3.56,26.72,16.25,9.46,37.47-31.35,98.94-70.3,105.54-12.32,2.09-21.37-4.97-23.58-16.29-2.42-12.43-1.48-25.58,3.33-37.42ZM897.58,135.23c8.16-2.06,15.88-.59,21.59,5.32-16.58,18.09-16.72,14.52-23.62,38.86l-17.24-10.54c-3.06-11.83,6.01-30.29,19.28-33.64ZM847.7,148.72c3.56-5.4,10.82-9.37,18.75-9.15-3.33,9.92-5.5,16.56-5.64,27.83-4.99,2.08-10.71,3.44-16.37,3.99-2.25-8.38-1.42-15.58,3.26-22.68ZM534.54,48.88c63.61-14.27,144.81-13.01,207.15,8.34,10.48,3.59,38.16,15.06,36.66,27.58-1.74,14.48-37.09,24.04-51.47,26.67-58.12,10.62-116.45,9.6-173.86-.45-15.43-2.7-68.71-16.01-68.34-33.95.28-14.02,37.22-25.35,49.86-28.18ZM145.28,92.25c63.61-14.27,144.81-13.01,207.15,8.34,10.48,3.59,38.16,15.06,36.66,27.58-1.74,14.48-37.09,24.04-51.47,26.67-58.12,10.62-116.45,9.6-173.86-.45-15.43-2.7-68.71-16.01-68.34-33.95.28-14.02,37.22-25.35,49.86-28.18ZM63.85,264.93c2.03-7.3,10.02-10.36,16.69-7.09,5.85,2.87,9.56,9.39,10.21,15.68l-25.51,12.25c-3.67-5.83-3.25-14.13-1.39-20.85ZM38.08,413.77c-2.7-5.98-3.14-12.61,2.31-17.87,12.37,17.63,30.11,27.24,50.49,32.61-8.21,18.04-43.46,5.97-52.81-14.74ZM110.42,411.46c-13.39,2.87-25.96-.99-37.21-8.11-29.51-18.7-37.62-61.43-13.39-89.16,27.28-31.22,77.19-34.97,80.85-13.41,1.29,7.59-2.18,16.84-10.68,18.22-11.21,1.82-24.97-6.42-30.27,3.1-1.6,2.88-1.61,11.47,2.57,12.06l23.28,3.31c5.22.74,10.61,4.52,12.28,8.5,2.34,5.57,1.29,11.85-2.61,16.6-13.92,17.02-31.62-.69-44.51,3.61-2.4.8-3.81,6.83-3.08,9.16,3.4,10.81,25.01,9.9,36.06,11.53,4.13,10.5-1.86,22.15-13.3,24.6ZM115.07,593.13c-17.07-7.29-27.81-26.7-23.43-44.74,1.98-8.14,10.39-12.17,17.68-8.76-5.91,21.11,3.12,39.11,21.01,50.68-4.2,4.31-9.94,5.09-15.26,2.82ZM196.96,668.78c-.79-26.05-20.18-43.29-43.6-45.33-6.78-.59-13.68.27-20.13-.89-3.64-.65-5.31-11.16-2.29-12.99,16.72-7.91,16.44-4.77,25.4-21.67l28.47-6.86,39.66-12.77,21.48,51.36-.92,20.13c-.61,13.31,7.12,20.98,18.25,28.98l-66.31.04ZM271.75,651.72c-10.92,4.62-13.13-18.72-8.09-28.15,4.33-8.1,9.46-16.45,17.33-21.82-4.94,17.6-10.8,32.01-9.23,49.97ZM392.77,301.64l-10.27,77.26-10.42,86.35c-.55,4.57-3.15,8.8-6.81,11.21-20.96,13.81-43.18,22.82-68.19,27.41-59.8,10.99-122.5,1.97-176.2-28.38l-5.13-47.86c15.16-4.13,24.84-15.24,25.55-30.78l.75-16.56c2.35-2.64,6.58-6.24,8.7-9,9.67-12.6,6.42-29.46-3.49-41.25,4.68-7.31,10.18-13.77,11.29-22.06,2.14-15.92-8.44-30.26-23.53-34.98-8.5-2.66-17.57-2.88-26.25-3.51-2.74-7.05-5.84-14.3-10.6-19.4-2.81-3.01-5.07-4.37-5.16-9.62,11.45,1.92,20.1,5.78,30.9,8.58,75.28,19.5,172.9,23.41,247.9,1.83,9.03-2.6,16.24-5.52,26.93-7.44-1.09,20.02-3.33,38.37-5.96,58.2ZM456.41,384.5c-22.2.92-33.87-.65-56.6-4.19l3.55-24.53,22.98,1.02,29.74,1.55,2.48,13.05c.77,4.04.48,10.46-2.14,13.11ZM539.73,616.82c-17.2,3.88-35.76-4.71-43.97-20.25-4.18-7.9-1.16-16.89,7.27-19.86,11.74,20.78,20.22,27.98,47.12,28.98.84,5.74-5.03,9.91-10.42,11.13ZM543.31,586.47l-23.33-15.13c1.59-6.36,8.35-10.26,12.39-15.11,9.01-10.81,16.06-21.65,24.09-33.84,7.95.2,15.99,1.27,24.17,2.8l3.8.71c.87.16.49,4.08.03,4.99l-9.81,19.61c-1.23,2.46-26.22,39.66-31.35,35.97ZM620.68,667.59c-.53-10.87-1.02-20.87-5.07-30.07-7.79-17.69-24.91-26.75-44.69-26.53l-7.95-17.21c17.42-17.16,33.39-43.4,40.24-65.62l58.48.09,17.94,44.19c1.89,4.65,5.4,8.8,5.56,14.11-6.91,13.61-6.08,28.45.26,41.76-.21,13.4,1.17,24.33,6.06,39.79l-70.84-.5ZM755.84,611.79c12.21-16.75,31.55-38.62,54.06-37.02,9.74.69,17.9,7.02,19.68,16.84,6.54,36.06-28.7,97.81-70.38,104.7-13.27,2.19-22.71-6.19-23.66-18.98-1.75-23.42,6.41-46.47,20.31-65.53ZM722.76,557.65c-6.82,6.99-12.23,11.61-22.12,18.11l-11.87-23.96c-3.78-7.62-6.18-16.5-9.13-25.56l18.81-3.75c3.69-.73,6.88,1.18,8.62,4.57l15.69,30.6ZM757.59,485.15c-17.11,9.83-35.24,16.11-55.25,19.99-53.48,10.36-108.43,8.7-161.33-4.18-16.8-4.09-32.1-9.78-46.64-17.78-9.21-5.07-13.25-12.86-14.25-23.02-.31-3.1-.52-6.16-.8-9.25,17.04,13.36,58.54,33.11,155.09,33.11,74.12,0,119.4-19.9,138.24-30.47-.5,4.01-1,8-1.5,12.02-1.13,9.01-5.91,15.17-13.56,19.57ZM786.4,323.19c-2.22,32.8-5.77,64.9-9.66,97.07-17.02,10.02-57.93,27.69-138.39,30.95-66.71,2.7-138.37-27.27-161.99-38.14-.33-5.04-.71-10.07-1-15.12-.75-13.21-1.37-26.46-1.89-39.88l-3.92-100.51c-.88-22.46-1.36-44.41-1.23-66.63.43.16.87.32,1.3.48,72.73,26.3,151.53,35.92,228.42,27.32,15.44-1.73,30.8-4.16,46-7.4,36.05-7.68,39.07-9.55,43.96-11.25l6.63-2.17c-.15,4.98-.4,10-.76,15.35l-7.45,109.94ZM852.31,357.24c-15.27,13.14-32.41,22.43-54.39,25.05l1.57-21.95c10.28-4.12,20.73-7.47,29.12-14.58,18.02-15.27,21.76-24.85,31.38-47.06l17.43,1.96c5.75,12.29-16.95,46.55-25.11,56.58ZM902.22,281.37c-21.07,7.79-52.43.43-54-13.55-.36-3.21,1.98-10.7,5.19-11.19l25.12,6.3c11.53,2.89,23.15,1.93,36.6,2.01.73,7.27-5.6,13.73-12.9,16.43ZM957.33,220.67c-20.72,33.19-75.33,35.73-108.13,12.67-10.81-7.6-15.25-24.72-8.01-36.11,8.08-12.72,26.37-14.83,38.65-8.25,4.89,2.62,6.39,8.5,2.23,13.22-6.1,6.93-17.17,6.1-14.38,16.32,1.15,4.2,6.03,6.13,10.7,5.19,10.62-2.15,16.92-9.84,22.26-20.05l10.19,7.71c8.92,4.64,21.92,2.91,28.87-3.98,9.5-9.43,18.92-29.58,7.12-33.6-14.55-4.95-11.05,25.53-26.8,23.47-2.87-.38-6.92-4.71-7.24-8.61-1.12-13.69,6.84-26.6,18.19-33.93,6.3-4.07,14.02-3.57,19.94.32,10.24,6.74,14.32,17.83,15.39,29.51,1.25,13.52-1.82,24.68-8.96,36.11Z"/>
  <path d="M257.98,312.54c-25.54-11.64-35.08,90.08-8.55,90.28,6.56.05,11.29-6.02,13.51-11.61,8-20.15,9.21-42.32,4.69-63.67-1.24-5.85-4.41-12.61-9.65-15Z"/>
  <path d="M331.24,307.26c-6.08,1.23-11.04,6.69-13.17,12.7-7.93,22.46-9.25,47.4-1.17,69.66,2.07,5.69,9.1,10.04,14.35,7.67,12.7-5.73,16.02-36.35,17.02-49.51.97-12.74-3.23-43.32-17.04-40.52Z"/>
  <path d="M130.65,131.2c10.33,5.63,21.23,8.79,33.35,10.7,51.84,8.19,137.56,11.9,187.77-2.74,5.8-1.69,12.18-5.42,15.6-10.06,11.56-15.66-34.85-26.47-43.92-28.2-44.62-8.54-89.6-10.1-134.9-6.44-15.54,1.25-60.39,7.61-66.93,21.96-2.54,5.58,4.44,12.28,9.02,14.78Z"/>
  <path d="M519.91,87.83c10.33,5.63,21.23,8.79,33.35,10.7,51.84,8.19,137.56,11.9,187.77-2.74,5.8-1.69,12.18-5.42,15.6-10.06,11.56-15.66-34.85-26.47-43.92-28.2-44.62-8.54-89.6-10.1-134.9-6.44-15.54,1.25-60.39,7.61-66.93,21.96-2.54,5.58,4.44,12.28,9.02,14.78Z"/>
</svg>